<?xml version="1.0" standalone="no"?>
<!DOCTYPE svg PUBLIC "-//W3C//DTD SVG 20010904//EN"
 "http://www.w3.org/TR/2001/REC-SVG-20010904/DTD/svg10.dtd">
<svg version="1.0" xmlns="http://www.w3.org/2000/svg"
 width="200.000000pt" height="200.000000pt" viewBox="0 0 200.000000 200.000000"
 preserveAspectRatio="xMidYMid meet">

<g transform="translate(0.000000,200.000000) scale(0.100000,-0.100000)"
fill="#000000" stroke="none">
<path d="M950 1966 c-14 -38 -13 -61 6 -77 14 -11 18 -10 31 6 15 22 10 62
-12 84 -12 12 -16 11 -25 -13z"/>
<path d="M880 1880 c0 -24 42 -70 65 -70 30 0 17 47 -19 69 -41 26 -46 26 -46
1z"/>
<path d="M1013 1880 c-23 -14 -33 -27 -33 -45 0 -14 6 -25 13 -25 23 0 57 40
57 65 0 30 3 30 -37 5z"/>
<path d="M832 1799 c6 -61 37 -97 91 -106 37 -6 37 -5 37 30 0 36 0 36 -89
105 -16 12 -32 22 -36 22 -4 0 -5 -23 -3 -51z"/>
<path d="M1072 1830 c-7 -11 -18 -20 -25 -20 -7 0 -25 -11 -40 -25 -35 -33
-39 -95 -7 -95 59 0 110 58 110 125 0 39 -18 47 -38 15z"/>
<path d="M513 1663 c-26 -5 -71 -55 -79 -89 -17 -68 30 -148 94 -158 98 -16
172 54 157 150 -11 76 -80 115 -172 97z"/>
<path d="M1330 1662 c-34 -15 -60 -40 -70 -66 -52 -138 108 -246 211 -140 79
81 16 216 -100 213 -14 0 -33 -3 -41 -7z"/>
<path d="M893 1603 c-26 -20 -52 -42 -58 -48 -5 -7 -57 -50 -113 -96 -95 -76
-162 -132 -217 -177 -11 -9 -43 -35 -70 -57 -28 -21 -66 -54 -85 -72 -19 -18
-38 -33 -41 -33 -4 0 -17 -16 -30 -36 l-22 -36 21 -20 c14 -15 27 -19 45 -14
23 5 200 119 240 154 26 23 37 2 37 -73 0 -33 5 -104 10 -157 6 -54 14 -140
19 -192 10 -103 22 -136 51 -136 41 0 47 32 59 323 16 375 15 368 60 398 20
13 67 45 104 72 l68 48 37 -29 c20 -15 69 -49 108 -75 l71 -47 6 -223 c13
-411 20 -467 62 -467 39 0 47 24 61 183 21 246 34 380 39 385 2 2 21 -9 42
-25 68 -53 194 -133 219 -139 55 -14 73 49 27 92 -36 33 -149 128 -333 279
-80 65 -169 139 -198 164 -124 106 -144 111 -219 54z"/>
<path d="M834 1167 c-3 -8 -4 -36 -2 -63 l3 -49 55 0 55 0 0 60 0 60 -53 3
c-38 2 -54 -1 -58 -11z"/>
<path d="M988 1153 c-2 -16 -1 -45 1 -66 l3 -38 57 3 56 3 3 48 c4 63 -9 77
-69 77 -45 0 -48 -2 -51 -27z"/>
<path d="M836 1014 c-10 -27 -7 -99 6 -112 13 -13 66 -16 92 -6 23 9 23 119 0
128 -32 12 -92 6 -98 -10z"/>
<path d="M997 1023 c-4 -3 -7 -32 -7 -64 0 -61 7 -69 56 -69 49 0 64 17 64 68
0 27 -5 53 -12 60 -13 13 -90 17 -101 5z"/>
<path d="M267 503 c-12 -12 -8 -168 5 -181 19 -19 102 -15 121 6 18 20 23 67
8 76 -5 3 -7 24 -4 47 4 29 2 44 -8 50 -16 10 -113 12 -122 2z m92 -59 c-16
-19 -53 -14 -57 8 -4 19 25 28 51 16 15 -8 16 -12 6 -24z m-5 -50 c9 -3 16
-15 16 -25 0 -15 -7 -19 -35 -19 -28 0 -35 4 -35 19 0 25 24 36 54 25z"/>
<path d="M447 503 c-9 -8 -9 -156 -1 -177 7 -19 33 -21 35 -3 1 6 3 19 4 27 1
8 3 21 4 28 0 6 14 12 30 12 16 0 34 7 42 16 17 20 15 84 -3 95 -15 10 -102
12 -111 2z m81 -55 c-4 -27 -33 -36 -42 -13 -8 22 1 35 25 35 15 0 20 -6 17
-22z"/>
<path d="M680 490 c0 -15 7 -20 25 -20 25 0 25 -1 25 -81 0 -71 2 -80 18 -77
14 3 17 16 20 81 2 67 5 77 21 77 21 0 44 23 34 33 -3 4 -37 7 -75 7 -61 0
-68 -2 -68 -20z"/>
<path d="M871 448 c-32 -88 -38 -138 -17 -138 8 0 18 11 22 25 5 20 12 25 40
25 28 0 35 -5 40 -25 7 -27 31 -34 40 -11 3 8 -3 34 -14 58 -10 24 -22 56 -26
73 -20 78 -56 75 -85 -7z m58 -45 c1 -7 -6 -13 -14 -13 -17 0 -18 4 -8 39 6
23 7 23 14 5 4 -10 8 -25 8 -31z"/>
<path d="M1030 411 c0 -80 3 -101 14 -101 16 0 26 21 26 56 0 19 5 24 28 24
43 0 57 15 57 59 0 22 -4 43 -8 47 -4 4 -32 9 -62 12 l-55 4 0 -101z m86 47
c7 -12 -15 -38 -32 -38 -9 0 -14 11 -14 29 0 24 3 28 20 24 11 -3 23 -10 26
-15z"/>
<path d="M1192 413 l3 -98 63 -3 c57 -3 62 -1 62 18 0 17 -6 20 -45 20 -41 0
-45 2 -45 25 0 23 4 25 40 25 29 0 40 4 40 15 0 11 -11 15 -40 15 -33 0 -40 3
-40 20 0 14 7 20 23 21 12 1 29 2 37 3 8 1 21 5 28 9 25 16 0 27 -64 27 l-65
0 3 -97z"/>
<path d="M1355 498 c-3 -8 -5 -52 -3 -99 3 -70 6 -84 21 -87 14 -3 17 4 17 37
0 29 4 41 14 41 15 0 56 -50 56 -69 0 -6 9 -11 20 -11 26 0 26 29 0 62 -19 25
-19 26 0 43 21 19 26 51 11 74 -14 21 -129 28 -136 9z m100 -48 c0 -10 -12
-16 -32 -18 -28 -3 -33 0 -33 18 0 18 5 21 33 18 20 -2 32 -8 32 -18z"/>
<path d="M1577 503 c-4 -3 -7 -15 -7 -25 0 -10 -4 -18 -8 -18 -6 0 -42 -121
-42 -142 0 -18 28 -6 40 17 9 18 22 25 42 25 21 0 32 -7 40 -25 12 -26 34 -33
40 -13 4 12 -17 76 -49 151 -15 34 -39 48 -56 30z m42 -100 c1 -7 -8 -13 -19
-13 -23 0 -25 12 -8 43 11 21 11 21 19 2 4 -11 8 -26 8 -32z"/>
<path d="M597 396 c-8 -19 1 -26 34 -26 32 0 48 18 28 31 -21 13 -56 11 -62
-5z"/>
</g>
</svg>
